<svg width="14" height="13" viewBox="0 0 14 13" fill="none" xmlns="http://www.w3.org/2000/svg">
<path d="M13.1873 6.38885C13.1873 5.87497 13.1456 5.49997 13.0553 5.11108H7.18726V7.4305H10.6317C10.5623 8.00691 10.1873 8.87497 9.35391 9.45827L9.34223 9.53592L11.1976 10.9733L11.3261 10.9861C12.5067 9.89579 13.1873 8.29162 13.1873 6.38885Z" fill="white"/>
<path d="M7.18723 12.5C8.87471 12.5 10.2914 11.9444 11.3261 10.9861L9.35388 9.45827C8.82612 9.82633 8.11777 10.0833 7.18723 10.0833C5.53446 10.0833 4.1317 8.99303 3.63165 7.48608L3.55835 7.49231L1.62911 8.98537L1.60388 9.0555C2.63165 11.0972 4.74277 12.5 7.18723 12.5Z" fill="white"/>
<path d="M3.6318 7.48604C3.49985 7.09716 3.42349 6.68046 3.42349 6.24992C3.42349 5.81934 3.49985 5.40269 3.62485 5.01381L3.62136 4.93098L1.66794 3.41394L1.60403 3.44434C1.18044 4.29157 0.937378 5.24298 0.937378 6.24992C0.937378 7.25686 1.18044 8.20822 1.60403 9.05546L3.6318 7.48604Z" fill="white"/>
<path d="M7.18723 2.41665C8.36082 2.41665 9.15247 2.92359 9.60388 3.34723L11.3678 1.625C10.2845 0.618058 8.87471 0 7.18723 0C4.74276 0 2.63165 1.40277 1.60388 3.44442L3.62471 5.01388C4.1317 3.50694 5.53446 2.41665 7.18723 2.41665Z" fill="white"/>
</svg>
