<svg width="14" height="22" viewBox="0 0 14 22" fill="none" xmlns="http://www.w3.org/2000/svg">
<path opacity="0.87" fill-rule="evenodd" clip-rule="evenodd" d="M2 0H12C13.1 0 14 0.9 14 2V20C14 21.1 13.1 22 12 22H2C0.9 22 0 21.1 0 20V2C0 0.9 0.9 0 2 0ZM12 18V4H2V18H12ZM7 5.72C5.04 5.72 3.5 7.24 3.5 9.19H5.25C5.25 8.26 6.07 7.44 7 7.44C7.93 7.44 8.75 8.26 8.75 9.19C8.75 9.95658 8.24534 10.3528 7.67815 10.7982C6.95053 11.3695 6.12 12.0216 6.12 13.64H7.88C7.88 12.6949 8.48921 12.152 9.12009 11.5898C9.79755 10.9862 10.5 10.3602 10.5 9.19C10.5 7.23 8.96 5.72 7 5.72ZM8 17V15H6V17H8Z" fill="#4A8EC2"/>
</svg>
