<svg width="79" height="91" viewBox="0 0 79 91" fill="none" xmlns="http://www.w3.org/2000/svg">
<path fill-rule="evenodd" clip-rule="evenodd" d="M62.961 45.3368C64.136 45.7825 65.3109 46.3092 66.4454 46.9574C74.2243 51.4546 78.5595 59.5983 78.6 67.985C71.3072 72.1581 62.0697 72.4822 54.2907 67.985C53.1563 67.3367 52.1029 66.6074 51.1305 65.7971C51.3331 67.0531 51.4546 68.3496 51.4546 69.6461C51.4546 78.6405 46.5523 86.46 39.3 90.6736C32.0477 86.46 27.1454 78.6405 27.1454 69.6461C27.1454 68.3496 27.2669 67.0531 27.4695 65.7566C26.4971 66.5264 25.4437 67.2962 24.3093 67.9444C16.4898 72.4417 7.25227 72.1175 0 67.9444C0.0405155 59.5577 4.37567 51.4141 12.1546 46.9169C13.2891 46.2687 14.464 45.742 15.639 45.2963C14.464 44.8506 13.2891 44.3239 12.1546 43.6757C4.33516 39.1785 0 31.0348 0 22.6481C7.29278 18.4751 16.5303 18.1509 24.3093 22.6481C25.4437 23.2964 26.4971 24.0662 27.4695 24.8765C27.2669 23.6205 27.1454 22.324 27.1454 21.0275C27.1454 12.0331 32.0477 4.21361 39.3 0C46.5523 4.21361 51.4546 12.0331 51.4546 21.0275C51.4546 22.324 51.3331 23.6205 51.1305 24.8765C52.1029 24.1067 53.1563 23.3369 54.2907 22.6887C62.1102 18.1914 71.3477 18.5156 78.6 22.6887C78.5595 31.0754 74.2243 39.219 66.4454 43.7162C65.3109 44.3644 64.136 44.8911 62.961 45.3368ZM23.0936 45.3366C23.0936 54.2905 30.3459 61.5428 39.2998 61.5428C48.2537 61.5428 55.506 54.2905 55.506 45.3366C55.506 36.3827 48.2537 29.1304 39.2998 29.1304C30.3459 29.1304 23.0936 36.3827 23.0936 45.3366Z" fill="#336DA5"/>
</svg>
