<svg width="20" height="12" viewBox="0 0 20 12" fill="none" xmlns="http://www.w3.org/2000/svg">
<path d="M3.4083 0.166748H1.36663C0.7833 0.166748 0.666626 0.441354 0.666626 0.744161C0.666626 1.28493 1.3588 3.96706 3.88949 7.51436C5.5766 9.93689 7.95363 11.2501 10.1166 11.2501C11.4144 11.2501 11.575 10.9584 11.575 10.456V8.62508C11.575 8.04175 11.6979 7.92533 12.1089 7.92533C12.4117 7.92533 12.9308 8.07674 14.1421 9.24476C15.5264 10.6291 15.7546 11.2501 16.5333 11.2501H18.575C19.1583 11.2501 19.45 10.9584 19.2817 10.3828C19.0976 9.80916 18.4366 8.97685 17.5597 7.99022C17.0838 7.42784 16.37 6.82223 16.1537 6.51935C15.8509 6.13006 15.9374 5.95698 16.1537 5.61093L16.19 5.55942C16.4977 5.12216 18.6597 2.02189 18.9007 0.917239C19.0304 0.484632 18.9007 0.166748 18.2833 0.166748H16.2416C15.7225 0.166748 15.4832 0.441354 15.3534 0.744161C15.3534 0.744161 14.3151 3.27489 12.8443 4.91876C12.3684 5.39461 12.1521 5.54601 11.8926 5.54601C11.7628 5.54601 11.5749 5.39461 11.5749 4.96204V0.917239C11.5749 0.398111 11.4243 0.166748 10.9916 0.166748H7.7833C7.45889 0.166748 7.26379 0.407688 7.26379 0.636036C7.26379 1.12816 7.99916 1.24165 8.07497 2.62599V5.63257C8.07497 6.29175 7.95592 6.41126 7.69636 6.41126C7.00422 6.41126 5.3206 3.86923 4.32206 0.960482C4.12637 0.395122 3.93009 0.166748 3.4083 0.166748Z" fill="white"/>
</svg>
